<?xml version="1.0" encoding="utf-8"?>
<!-- Generator: Adobe Illustrator 27.2.0, SVG Export Plug-In . SVG Version: 6.00 Build 0)  -->
<svg version="1.1" id="Capa_1" xmlns="http://www.w3.org/2000/svg" xmlns:xlink="http://www.w3.org/1999/xlink" x="0px" y="0px"
	 viewBox="0 0 595.28 841.89" style="enable-background:new 0 0 595.28 841.89;" xml:space="preserve">
<style type="text/css">
	.st0{fill:#1F9AFF;}
	.st1{fill:#0068FF;}
</style>
<g>
	<polygon class="st0" points="132,249.46 132,520.75 346.71,520.75 304.64,447.46 202.71,447.46 202.71,249.46 	"/>
	<path class="st0" d="M394.93,248.18c50.79-1.16,94.12,38.59,97.71,84.86c2.98,38.39-21.01,76.4-59.79,92.57l60.03,95.14h-92.18
		l-64.29-93.86h-97.07v-58.5h120.86c2.27,0.03,12.21-0.07,20.57-7.71c6.65-6.08,6.47-13.53,6.99-16.15
		c-0.21-2.24,0.75-10.59-6.35-17.28c-9.17-8.64-20.89-7.28-22.5-7.07H239.36v-66.21v-4.5C239.36,249.46,391.72,248.25,394.93,248.18
		z"/>
</g>
<g>
	<path class="st1" d="M148.47,544.06h6.25c1.03,0,1.72,0.79,1.53,1.77l-3.88,20.68c-0.11,0.59,0.3,1.06,0.92,1.06h15.22
		c1.03,0,1.72,0.79,1.54,1.77l-0.9,4.81c-0.18,0.98-1.17,1.77-2.2,1.77h-24.46c-1.03,0-1.72-0.79-1.54-1.77l5.32-28.31
		C146.45,544.86,147.43,544.06,148.47,544.06z"/>
	<path class="st1" d="M169.96,573.7l19.18-27.95c0.98-1.26,2.22-1.58,3.91-1.64v0.03c0.01,0,0.01,0,0.02,0v-0.03
		c0.47-0.02,0.96-0.01,1.51,0c0.08,0,0.17,0,0.25,0c0.19,0,0.36,0,0.56,0c0.69,0,1.45,0.02,2.33,0.02c0,0,1.65-0.05,2.26,1.63
		l9.48,27.95c0.16,0.46,0.05,1.03-0.27,1.48c-0.33,0.45-0.83,0.73-1.32,0.73h-7.56c-0.52,0-0.96-0.31-1.11-0.81l-0.84-2.63h-15.99
		l-0.65,0.96l-1.24,1.69c-0.36,0.49-0.96,0.8-1.55,0.8h-7.98c-0.56,0-1.02-0.28-1.23-0.73C169.51,574.73,169.61,574.16,169.96,573.7
		z M187.54,564.87h8.39l-2.73-8.3L187.54,564.87z"/>
	<path class="st1" d="M234.93,575.91c-1.03,0-1.72-0.79-1.54-1.77l5.33-28.34c0.18-0.98,1.17-1.77,2.2-1.77h23.62
		c4.85,0,8.09,3.72,7.23,8.31l-1.36,7.25c-0.59,3.15-2.97,5.87-5.98,7.28c-0.22,0.1-0.33,0.33-0.22,0.51l3.89,6.51
		c0.51,0.88-0.13,1.93-1.17,1.93c-3.25,0-5.27,0.1-6.6,0.08c-2.27,0.03-3.02-0.06-3.43-0.85l-3.56-6.68
		c-0.15-0.29-0.47-0.47-0.84-0.47l-7.56,0.01c-0.21,0-0.4,0.16-0.44,0.36l-1.1,5.88c-0.18,0.98-1.17,1.77-2.2,1.77L234.93,575.91
		L234.93,575.91z M246.12,559.57c-0.04,0.2,0.1,0.36,0.31,0.36h12.22c0.92,0,1.79-0.71,1.96-1.57l0.9-4.77
		c0.16-0.87-0.45-1.58-1.37-1.58h-12.22c-0.21,0-0.4,0.16-0.44,0.36L246.12,559.57z"/>
	<path class="st1" d="M272.53,574.14l5.33-28.36c0.18-0.98,1.17-1.77,2.21-1.77h27.9c0.62,0,1.03,0.48,0.92,1.06l-1.13,6.01
		c-0.11,0.59-0.7,1.07-1.32,1.07h-19.39c-0.21,0-0.4,0.16-0.44,0.36l-0.62,3.29c-0.04,0.19,0.1,0.36,0.31,0.36h15.6
		c0.62,0,1.03,0.47,0.92,1.06l-1.04,5.52c-0.11,0.58-0.7,1.06-1.32,1.06h-15.6c-0.21,0-0.41,0.16-0.44,0.36l-0.58,3.07
		c-0.04,0.2,0.1,0.36,0.31,0.36h19.39c0.62,0,1.03,0.47,0.92,1.06l-1.17,6.23c-0.11,0.58-0.7,1.06-1.32,1.06h-27.9
		C273.04,575.91,272.35,575.12,272.53,574.14z"/>
	<path class="st1" d="M309.48,575.91c-1.03,0-1.72-0.79-1.54-1.77l0.9-4.8c0.18-0.98,1.17-1.77,2.2-1.77h20.78
		c0.62,0,1.21-0.47,1.32-1.06l0.28-1.5c0.11-0.59-0.3-1.06-0.92-1.06h-14.95c-4.86,0-8.09-3.72-7.23-8.31l0.61-3.25
		c0.86-4.59,5.5-8.31,10.35-8.31h22.1c1.03,0,1.72,0.79,1.54,1.77l-0.86,4.58c-0.18,0.98-1.17,1.77-2.2,1.77h-20.22
		c-0.62,0-1.21,0.47-1.32,1.06l-0.38,2c-0.11,0.59,0.3,1.06,0.92,1.06h14.95c4.86,0,8.09,3.72,7.23,8.31l-0.56,2.98
		c-0.86,4.59-5.5,8.31-10.35,8.31h-0.97v0H309.48z"/>
	<path class="st1" d="M345.48,574.14l5.33-28.36c0.18-0.98,1.17-1.77,2.21-1.77h27.9c0.62,0,1.03,0.48,0.92,1.06l-1.13,6.01
		c-0.11,0.59-0.7,1.07-1.32,1.07h-19.39c-0.21,0-0.4,0.16-0.44,0.36l-0.62,3.29c-0.04,0.19,0.1,0.36,0.31,0.36h15.6
		c0.62,0,1.03,0.47,0.92,1.06l-1.04,5.52c-0.11,0.58-0.7,1.06-1.32,1.06h-15.6c-0.21,0-0.4,0.16-0.44,0.36l-0.58,3.07
		c-0.04,0.2,0.1,0.36,0.31,0.36h19.39c0.62,0,1.03,0.47,0.92,1.06l-1.17,6.23c-0.11,0.58-0.7,1.06-1.32,1.06h-27.9
		C345.99,575.91,345.29,575.12,345.48,574.14z"/>
	<path class="st1" d="M382.28,575.91c-1.03,0-1.72-0.79-1.54-1.77l5.33-28.34c0.18-0.98,1.17-1.77,2.2-1.77h23.62
		c4.85,0,8.09,3.72,7.22,8.31l-1.36,7.25c-0.59,3.15-2.97,5.87-5.98,7.28c-0.22,0.1-0.33,0.33-0.22,0.51l3.89,6.51
		c0.51,0.88-0.13,1.93-1.17,1.93c-3.25,0-5.27,0.1-6.6,0.08c-2.27,0.03-3.02-0.06-3.43-0.85l-3.56-6.68
		c-0.15-0.29-0.47-0.47-0.84-0.47l-7.56,0.01c-0.21,0-0.4,0.16-0.44,0.36l-1.1,5.88c-0.18,0.98-1.17,1.77-2.2,1.77L382.28,575.91
		L382.28,575.91z M393.47,559.57c-0.04,0.2,0.1,0.36,0.31,0.36H406c0.92,0,1.79-0.71,1.96-1.57l0.9-4.77
		c0.16-0.87-0.45-1.58-1.37-1.58h-12.22c-0.21,0-0.4,0.16-0.44,0.36L393.47,559.57z"/>
	<path class="st1" d="M459.09,545.51c-8.86,15.75-6.61,11.73-16.32,29.21c-0.4,0.71-1.2,1.2-2,1.2h-11.27c-0.8,0-1.42-0.49-1.55-1.2
		c-3.27-18.18-2.42-13.57-5.34-29.21c-0.13-0.69,0.55-1.42,1.32-1.42h7.59c0.8,0,1.42,0.47,1.54,1.18l3.62,19.79
		c0.08,0.42,0.67,0.52,0.88,0.16l11.13-19.94c0.4-0.71,1.19-1.18,1.99-1.18h7.59C459.07,544.09,459.48,544.81,459.09,545.51z"/>
	<path class="st1" d="M450.51,573.7l19.18-27.95c0.98-1.26,2.22-1.58,3.91-1.64v0.03c0.01,0,0.01,0,0.02,0v-0.03
		c0.47-0.02,0.96-0.01,1.51,0c0.08,0,0.17,0,0.25,0c0.19,0,0.36,0,0.56,0c0.69,0,1.46,0.02,2.33,0.02c0,0,1.65-0.05,2.26,1.63
		l9.48,27.95c0.16,0.46,0.05,1.03-0.27,1.48c-0.33,0.45-0.83,0.73-1.32,0.73h-7.56c-0.52,0-0.95-0.31-1.11-0.81l-0.84-2.63h-15.99
		l-0.65,0.96l-1.24,1.69c-0.37,0.49-0.96,0.8-1.55,0.8h-7.98c-0.56,0-1.02-0.28-1.23-0.73C450.07,574.73,450.16,574.16,450.51,573.7
		z M468.1,564.87h8.39l-2.73-8.3L468.1,564.87z"/>
</g>
</svg>
